<svg width="18" height="18" viewBox="0 0 18 18" fill="none" xmlns="http://www.w3.org/2000/svg">
<path fill-rule="evenodd" clip-rule="evenodd" d="M0.75 9C0.75 13.5563 4.44365 17.25 9 17.25C13.5563 17.25 17.25 13.5563 17.25 9C17.25 4.44365 13.5563 0.75 9 0.75C4.44365 0.75 0.75 4.44365 0.75 9ZM15.75 9C15.75 12.7279 12.7279 15.75 9 15.75C5.27208 15.75 2.25 12.7279 2.25 9C2.25 5.27208 5.27208 2.25 9 2.25C12.7279 2.25 15.75 5.27208 15.75 9ZM9.02406 14.25C6.50594 14.25 5.10482 12.9237 5.10482 10.5V9.75H12.8368L12.8576 10.4787C12.9268 12.9108 11.5503 14.25 9.02406 14.25ZM11.3157 11.25C11.1395 12.2966 10.4317 12.75 9.02406 12.75C7.6172 12.75 6.88634 12.2927 6.67257 11.25H11.3157ZM10.5 6H12.75V7.5H10.5V6ZM7.5 6H5.25V7.5H7.5V6Z" fill="#036B0B"/>
</svg>
